<svg xmlns="http://www.w3.org/2000/svg" version="1.1" xmlns:xlink="http://www.w3.org/1999/xlink" xmlns:svgjs="http://svgjs.dev/svgjs" width="2000" height="1247" viewBox="0 0 2000 1247"><g transform="matrix(1,0,0,1,-1.2121212121211329,0.504858299595071)"><svg viewBox="0 0 396 247" data-background-color="#77d4fc" preserveAspectRatio="xMidYMid meet" height="1247" width="2000" xmlns="http://www.w3.org/2000/svg" xmlns:xlink="http://www.w3.org/1999/xlink"><g id="tight-bounds" transform="matrix(1,0,0,1,0.2400000000000091,-0.09999999999999432)"><svg viewBox="0 0 395.52 247.2" height="247.2" width="395.52"><g><svg></svg></g><g><svg viewBox="0 0 395.52 247.2" height="247.2" width="395.52"><g transform="matrix(1,0,0,1,75.54432,87.82099009391115)"><svg viewBox="0 0 244.43135999999998 71.55801981217769" height="71.55801981217769" width="244.43135999999998"><g><svg viewBox="0 0 359.0084661937411 105.10081413707003" height="71.55801981217769" width="244.43135999999998"><g transform="matrix(1,0,0,1,114.57710619374114,32.47767709583256)"><svg viewBox="0 0 244.43135999999998 40.14545994540491" height="40.14545994540491" width="244.43135999999998"><g id="textblocktransform"><svg viewBox="0 0 244.43135999999998 40.14545994540491" height="40.14545994540491" width="244.43135999999998" id="textblock"><g><svg viewBox="0 0 244.43135999999998 40.14545994540491" height="40.14545994540491" width="244.43135999999998"><g transform="matrix(1,0,0,1,0,0)"><svg width="244.43135999999998" viewBox="2.5999999046325684 -35.5 219.7899932861328 36.099998474121094" height="40.14545994540491" data-palette-color="#0080ff"><path d="M15.95 0.6L15.95 0.6Q14.45 0.6 13.23 0.28 12-0.05 11.08-0.58 10.15-1.1 9.53-1.73 8.9-2.35 8.6-2.9L8.6-2.9 8.4-2.9 8.4 0 2.6 0 2.6-10.2 8.4-10.2 8.4-8.05Q8.4-5.35 10.3-4.23 12.2-3.1 15.5-3.1L15.5-3.1Q18.95-3.1 20.63-4.5 22.3-5.9 22.3-8.15L22.3-8.15Q22.3-9.25 22.03-10.05 21.75-10.85 21.1-11.43 20.45-12 19.35-12.43 18.25-12.85 16.6-13.2L16.6-13.2 14.35-13.7Q11.8-14.2 9.68-15.08 7.55-15.95 6.05-17.35 4.55-18.75 3.73-20.7 2.9-22.65 2.9-25.3L2.9-25.3Q2.9-27.55 3.7-29.43 4.5-31.3 6-32.65 7.5-34 9.73-34.75 11.95-35.5 14.8-35.5L14.8-35.5Q16.35-35.5 17.57-35.18 18.8-34.85 19.73-34.35 20.65-33.85 21.25-33.23 21.85-32.6 22.15-32.05L22.15-32.05 22.35-32.05 22.35-34.9 28.15-34.9 28.15-24.7 22.35-24.7 22.35-26.9Q22.35-29.55 20.5-30.68 18.65-31.8 15.7-31.8L15.7-31.8Q12.3-31.8 10.73-30.38 9.15-28.95 9.15-26.95L9.15-26.95Q9.15-25.8 9.5-25 9.85-24.2 10.63-23.6 11.4-23 12.65-22.58 13.9-22.15 15.7-21.75L15.7-21.75 17.8-21.35Q20.4-20.8 22.48-19.93 24.55-19.05 25.98-17.7 27.4-16.35 28.15-14.53 28.9-12.7 28.9-10.3L28.9-10.3Q28.9-7.95 28-5.95 27.1-3.95 25.43-2.5 23.75-1.05 21.35-0.23 18.95 0.6 15.95 0.6ZM33.5 0L33.5-3.3 37-3.3 37-31.6 33.5-31.6 33.5-34.9 48.6-34.9 48.6-31.6 45.1-31.6 45.1-17.5 45.45-17.5 51.1-23.7 58.4-31.6 54.9-31.6 54.9-34.9 67.1-34.9 67.1-31.6 63.45-31.6 54.5-22.3 66.1-3.3 69.1-3.3 69.1 0 53.45 0 53.45-3.3 56.7-3.3 48.95-16.8 45.1-12.8 45.1-3.3 48.6-3.3 48.6 0 33.5 0ZM71.84 0L71.84-3.3 75.34-3.3 75.34-31.6 71.84-31.6 71.84-34.9 99.7-34.9 99.7-25.6 93.9-25.6 93.9-31.3 83.45-31.3 83.45-20 90.05-20 90.05-23 93.75-23 93.75-13.4 90.05-13.4 90.05-16.4 83.45-16.4 83.45-3.6 94.3-3.6 94.3-10.3 100.09-10.3 100.09 0 71.84 0ZM113.04 0L105.34-31.6 102.84-31.6 102.84-34.9 117.54-34.9 117.54-31.6 113.54-31.6 119.24-7.05 119.44-7.05 126.39-34.9 133.14-34.9 140.39-7.05 140.59-7.05 145.99-31.6 141.99-31.6 141.99-34.9 152.74-34.9 152.74-31.6 150.24-31.6 142.54 0 134.74 0 127.89-25.2 127.69-25.2 120.84 0 113.04 0ZM155.49 0L155.49-3.3 158.99-3.3 158.99-31.6 155.49-31.6 155.49-34.9 183.34-34.9 183.34-25.6 177.54-25.6 177.54-31.3 167.09-31.3 167.09-20 173.69-20 173.69-23 177.39-23 177.39-13.4 173.69-13.4 173.69-16.4 167.09-16.4 167.09-3.6 177.94-3.6 177.94-10.3 183.74-10.3 183.74 0 155.49 0ZM188.39 0L188.39-3.3 191.89-3.3 191.89-31.6 188.39-31.6 188.39-34.9 208.04-34.9Q210.34-34.9 212.29-34.4 214.24-33.9 215.66-32.83 217.09-31.75 217.89-30.08 218.69-28.4 218.69-26.05L218.69-26.05Q218.69-24.25 218.09-22.75 217.49-21.25 216.44-20.13 215.39-19 213.99-18.23 212.59-17.45 210.94-17.1L210.94-17.1 217.39-6.25Q218.39-4.55 219.46-3.93 220.54-3.3 222.14-3.3L222.14-3.3 222.39-3.3 222.39 0 217.64 0Q215.89 0 214.59-0.28 213.29-0.55 212.29-1.15 211.29-1.75 210.54-2.65 209.79-3.55 209.14-4.85L209.14-4.85 203.74-15.45 199.99-15.45 199.99-3.3 203.49-3.3 203.49 0 188.39 0ZM199.99-31.3L199.99-18.85 204.99-18.85Q210.34-18.85 210.34-23.6L210.34-23.6 210.34-26.55Q210.34-31.3 204.99-31.3L204.99-31.3 199.99-31.3Z" opacity="1" transform="matrix(1,0,0,1,0,0)" fill="#0080ff" class="wordmark-text-0" data-fill-palette-color="primary" id="text-0"></path></svg></g></svg></g></svg></g></svg></g><g><svg viewBox="0 0 105.09972659166974 105.10081413707003" height="105.10081413707003" width="105.09972659166974"><g><svg xmlns="http://www.w3.org/2000/svg" xmlns:xlink="http://www.w3.org/1999/xlink" version="1.1" x="0" y="0" viewBox="2.1510000228881836 2.1500015258789062 95.84900665283203 95.8499984741211" enable-background="new 0 0 100 100" xml:space="preserve" height="105.10081413707003" width="105.09972659166974" class="icon-icon-0" data-fill-palette-color="accent" id="icon-0"><g fill="#0023ff" data-fill-palette-color="accent"><path fill="#0023ff" d="M98 50.075C98 76.543 76.542 98 50.075 98 23.606 98 2.151 76.543 2.151 50.075c0-26.468 21.456-47.925 47.924-47.925C76.542 2.15 98 23.607 98 50.075zM49.797 6.185c-24.373 0-44.133 19.758-44.133 44.131 0 24.375 19.76 44.133 44.133 44.133S93.93 74.691 93.93 50.316C93.93 25.943 74.17 6.185 49.797 6.185z" data-fill-palette-color="accent"></path><path fill="#0023ff" d="M90.862 50.438c0 22.613-18.331 40.945-40.944 40.945-22.614 0-40.945-18.332-40.945-40.945 0-22.614 18.332-40.945 40.945-40.945C72.531 9.493 90.862 27.825 90.862 50.438zM21.963 34.746l-8.713 3.712 4.68 8.552-6.778 7.423 8.068 5.97-3.066 9.198 9.681 2.258 1.131 9.683 9.843-1.776 4.679 8.231 8.229-5.811 8.067 5.811 4.843-8.393 9.681 2.259 1.131-10.329 9.844-1.771-3.067-9.521 8.067-5.809-6.454-7.262 4.519-8.875-9.037-3.873 1.129-9.843-10.166-0.162-2.904-9.52-9.197 3.872-6.454-7.1-6.454 7.262-9.197-4.034-3.228 9.52-9.843-0.323L21.963 34.746z" data-fill-palette-color="accent"></path><path fill="#0023ff" d="M76.019 60.886l2.098 5.809-6.132 1.13-10.166-7.906-1.291 1.452 8.876 9.519-0.322 5.973-5.971-1.454L57.001 63.82c-0.675 0.37-1.38 0.693-2.111 0.963l4.671 12.562-3.229 4.841-4.355-3.389-1.265-13.12c-0.382 0.031-0.769 0.05-1.156 0.05s-0.77-0.019-1.15-0.047l-0.624 13.278-4.841 3.551-3.066-5.002 4.348-12.723c-0.708-0.261-1.391-0.568-2.047-0.924l-5.852 11.547-5.809 1.292-0.646-5.486 8.913-9.851c-0.566-0.549-1.092-1.14-1.57-1.769l-10.085 8.068-5.809-0.967 1.613-5.648 12.263-5.002h0.001c-0.312-0.77-0.563-1.569-0.748-2.394l-12.646 3.2-4.518-3.388 3.549-4.035h13.253c0.032-0.624 0.105-1.24 0.209-1.843l-0.068-0.092-13.071-2.905-2.42-4.357 5.325-2.582 11.664 5.611c0.264-0.522 0.555-1.027 0.875-1.514L26.158 34.1l-0.484-5.647h5.809l7.906 9.521c0 0 0.21 0.074 0.498 0.165 0.478-0.383 0.978-0.738 1.5-1.063-0.114-0.391-0.222-0.717-0.222-0.717L34.71 26.354l1.453-5.809 5.325 2.098 4.246 12.578c0.531-0.134 1.073-0.24 1.625-0.317l-1.354-13.067 3.712-4.034 3.712 3.872L52.007 34.94c0.646 0.103 1.274 0.246 1.891 0.426l3.565-12.401 5.486-2.743 1.937 5.971-6.779 10.488 1.776 1.614 8.23-9.682h5.81L73.438 34.1l-10.489 7.261 0.161 1.292c0 0-0.006 0.022-0.016 0.058 0.146 0.264 0.288 0.532 0.423 0.805 1.75-0.791 11.856-5.704 11.856-5.704l5.325 2.582c0 0-1.936 4.68-2.42 4.68-0.426 0-10.897 1.985-13.471 2.474 0.126 0.717 0.203 1.451 0.227 2.198l13.403-0.154 3.712 4.197-4.681 3.387-12.85-3.331c-0.186 0.776-0.428 1.532-0.727 2.256L76.019 60.886zM49.879 38.618c-1.157 0-2.098 0.94-2.098 2.098 0 1.159 0.94 2.099 2.098 2.099s2.098-0.939 2.098-2.099C51.977 39.558 51.036 38.618 49.879 38.618zM56.494 41.361c-1.158 0-2.097 0.94-2.097 2.098 0 1.159 0.938 2.099 2.097 2.099 1.159 0 2.099-0.94 2.099-2.099C58.593 42.301 57.653 41.361 56.494 41.361zM59.399 48.138c-1.158 0-2.097 0.941-2.097 2.098 0 1.158 0.938 2.097 2.097 2.097 1.159 0 2.099-0.938 2.099-2.097C61.498 49.079 60.559 48.138 59.399 48.138zM56.655 54.916c-1.157 0-2.098 0.939-2.098 2.097 0 1.16 0.94 2.097 2.098 2.097 1.159 0 2.099-0.938 2.099-2.097C58.754 55.855 57.814 54.916 56.655 54.916zM49.879 57.98c-1.157 0-2.098 0.941-2.098 2.1 0 1.157 0.94 2.097 2.098 2.097s2.098-0.939 2.098-2.097C51.977 58.922 51.036 57.98 49.879 57.98zM43.263 54.916c-1.159 0-2.097 0.939-2.097 2.097 0 1.16 0.938 2.097 2.097 2.097 1.159 0 2.098-0.937 2.098-2.097C45.361 55.855 44.422 54.916 43.263 54.916zM40.197 48.138c-1.159 0-2.097 0.941-2.097 2.098 0 1.158 0.938 2.097 2.097 2.097 1.159 0 2.098-0.938 2.098-2.097C42.295 49.079 41.356 48.138 40.197 48.138zM42.779 41.361c-1.159 0-2.097 0.94-2.097 2.098 0 1.159 0.938 2.099 2.097 2.099s2.097-0.94 2.097-2.099C44.876 42.301 43.938 41.361 42.779 41.361zM49.717 47.494c-1.516 0-2.742 1.227-2.742 2.743 0 1.515 1.227 2.741 2.742 2.741s2.742-1.227 2.742-2.741C52.459 48.721 51.232 47.494 49.717 47.494z" data-fill-palette-color="accent"></path></g></svg></g></svg></g></svg></g></svg></g><g><path d="M0 123.6c0-68.262 55.338-123.6 123.6-123.6 54.633 0 100.987 35.446 117.319 84.595l-1.299 0c-16.284-48.457-62.076-83.362-116.02-83.363-67.582 0-122.368 54.786-122.368 122.368 0 67.582 54.786 122.368 122.368 122.368 53.944 0 99.735-34.905 116.02-83.363h1.299c-16.333 49.149-62.687 84.595-117.319 84.595-68.262 0-123.6-55.338-123.6-123.6z" fill="#0080ff" stroke="transparent" data-fill-palette-color="tertiary"></path></g></svg></g><defs></defs></svg><rect width="395.52" height="247.2" fill="none" stroke="none" visibility="hidden"></rect></g></svg></g></svg>