<svg xmlns="http://www.w3.org/2000/svg" version="1.1" xmlns:xlink="http://www.w3.org/1999/xlink" xmlns:svgjs="http://svgjs.dev/svgjs" width="2000" height="1247" viewBox="0 0 2000 1247"><g transform="matrix(1,0,0,1,-1.2121212121212466,0.504858299595071)"><svg viewBox="0 0 396 247" data-background-color="#77d4fc" preserveAspectRatio="xMidYMid meet" height="1247" width="2000" xmlns="http://www.w3.org/2000/svg" xmlns:xlink="http://www.w3.org/1999/xlink"><g id="tight-bounds" transform="matrix(1,0,0,1,0.2400000000000091,-0.09999999999999432)"><svg viewBox="0 0 395.52 247.2" height="247.2" width="395.52"><g><svg></svg></g><g><svg viewBox="0 0 395.52 247.2" height="247.2" width="395.52"><g transform="matrix(1,0,0,1,75.54432,83.70937894621412)"><svg viewBox="0 0 244.43135999999998 79.78124210757176" height="79.78124210757176" width="244.43135999999998"><g><svg viewBox="0 0 379.44829466849995 123.85013225902283" height="79.78124210757176" width="244.43135999999998"><g transform="matrix(1,0,0,1,135.01693466849997,38.271488539934865)"><svg viewBox="0 0 244.43135999999998 47.3071551791531" height="47.3071551791531" width="244.43135999999998"><g id="textblocktransform"><svg viewBox="0 0 244.43135999999998 47.3071551791531" height="47.3071551791531" width="244.43135999999998" id="textblock"><g><svg viewBox="0 0 244.43135999999998 47.3071551791531" height="47.3071551791531" width="244.43135999999998"><g transform="matrix(1,0,0,1,0,0)"><svg width="244.43135999999998" viewBox="2.8499999046325684 -35.29999923706055 184.1899871826172 35.64999771118164" height="47.3071551791531" data-palette-color="#0080ff"><path d="M14.9 0.35Q11.45 0.35 8.72-0.88 6-2.1 4.45-4.28 2.9-6.45 2.85-9.3L2.85-9.3 7.7-9.3Q7.95-6.85 9.73-5.18 11.5-3.5 14.9-3.5L14.9-3.5Q18.15-3.5 20.03-5.13 21.9-6.75 21.9-9.3L21.9-9.3Q21.9-11.3 20.8-12.55 19.7-13.8 18.05-14.45 16.4-15.1 13.6-15.85L13.6-15.85Q10.15-16.75 8.08-17.65 6-18.55 4.53-20.48 3.05-22.4 3.05-25.65L3.05-25.65Q3.05-28.5 4.5-30.7 5.95-32.9 8.58-34.1 11.2-35.3 14.6-35.3L14.6-35.3Q19.5-35.3 22.63-32.85 25.75-30.4 26.15-26.35L26.15-26.35 21.15-26.35Q20.9-28.35 19.05-29.88 17.2-31.4 14.15-31.4L14.15-31.4Q11.3-31.4 9.5-29.93 7.7-28.45 7.7-25.8L7.7-25.8Q7.7-23.9 8.78-22.7 9.85-21.5 11.43-20.88 13-20.25 15.85-19.45L15.85-19.45Q19.3-18.5 21.4-17.57 23.5-16.65 25-14.73 26.5-12.8 26.5-9.5L26.5-9.5Q26.5-6.95 25.15-4.7 23.8-2.45 21.15-1.05 18.5 0.35 14.9 0.35L14.9 0.35ZM58.05 0L52.1 0 37.75-15.9 37.75 0 33.2 0 33.2-34.85 37.75-34.85 37.75-18.7 52.15-34.85 57.9-34.85 42.1-17.4 58.05 0ZM81.9-31.15L67.7-31.15 67.7-19.5 80.4-19.5 80.4-15.75 67.7-15.75 67.7-3.75 81.9-3.75 81.9 0 63.15 0 63.15-34.9 81.9-34.9 81.9-31.15ZM127.69-34.85L132.59-34.85 122.49 0 117.39 0 109.29-28.05 100.89 0 95.84 0.05 86.09-34.85 90.94-34.85 98.54-5.3 106.94-34.85 112.04-34.85 120.04-5.4 127.69-34.85ZM156.34-31.15L142.14-31.15 142.14-19.5 154.84-19.5 154.84-15.75 142.14-15.75 142.14-3.75 156.34-3.75 156.34 0 137.59 0 137.59-34.9 156.34-34.9 156.34-31.15ZM187.04 0L181.59 0 173.29-14.25 167.79-14.25 167.79 0 163.24 0 163.24-34.85 174.49-34.85Q178.44-34.85 181.16-33.5 183.89-32.15 185.24-29.85 186.59-27.55 186.59-24.6L186.59-24.6Q186.59-21 184.51-18.25 182.44-15.5 178.29-14.6L178.29-14.6 187.04 0ZM167.79-31.1L167.79-17.9 174.49-17.9Q178.19-17.9 180.04-19.73 181.89-21.55 181.89-24.6L181.89-24.6Q181.89-27.7 180.06-29.4 178.24-31.1 174.49-31.1L174.49-31.1 167.79-31.1Z" opacity="1" transform="matrix(1,0,0,1,0,0)" fill="#0080ff" class="wordmark-text-0" data-fill-palette-color="primary" id="text-0"></path></svg></g></svg></g></svg></g></svg></g><g><svg viewBox="0 0 123.84885070242623 123.85013225902283" height="123.85013225902283" width="123.84885070242623"><g><svg xmlns="http://www.w3.org/2000/svg" xmlns:xlink="http://www.w3.org/1999/xlink" version="1.1" x="0" y="0" viewBox="2.1510000228881836 2.1500015258789062 95.84900665283203 95.8499984741211" enable-background="new 0 0 100 100" xml:space="preserve" height="123.85013225902283" width="123.84885070242623" class="icon-icon-0" data-fill-palette-color="accent" id="icon-0"><g fill="#0023ff" data-fill-palette-color="accent"><path fill="#0023ff" d="M98 50.075C98 76.543 76.542 98 50.075 98 23.606 98 2.151 76.543 2.151 50.075c0-26.468 21.456-47.925 47.924-47.925C76.542 2.15 98 23.607 98 50.075zM49.797 6.185c-24.373 0-44.133 19.758-44.133 44.131 0 24.375 19.76 44.133 44.133 44.133S93.93 74.691 93.93 50.316C93.93 25.943 74.17 6.185 49.797 6.185z" data-fill-palette-color="accent"></path><path fill="#0023ff" d="M90.862 50.438c0 22.613-18.331 40.945-40.944 40.945-22.614 0-40.945-18.332-40.945-40.945 0-22.614 18.332-40.945 40.945-40.945C72.531 9.493 90.862 27.825 90.862 50.438zM21.963 34.746l-8.713 3.712 4.68 8.552-6.778 7.423 8.068 5.97-3.066 9.198 9.681 2.258 1.131 9.683 9.843-1.776 4.679 8.231 8.229-5.811 8.067 5.811 4.843-8.393 9.681 2.259 1.131-10.329 9.844-1.771-3.067-9.521 8.067-5.809-6.454-7.262 4.519-8.875-9.037-3.873 1.129-9.843-10.166-0.162-2.904-9.52-9.197 3.872-6.454-7.1-6.454 7.262-9.197-4.034-3.228 9.52-9.843-0.323L21.963 34.746z" data-fill-palette-color="accent"></path><path fill="#0023ff" d="M76.019 60.886l2.098 5.809-6.132 1.13-10.166-7.906-1.291 1.452 8.876 9.519-0.322 5.973-5.971-1.454L57.001 63.82c-0.675 0.37-1.38 0.693-2.111 0.963l4.671 12.562-3.229 4.841-4.355-3.389-1.265-13.12c-0.382 0.031-0.769 0.05-1.156 0.05s-0.77-0.019-1.15-0.047l-0.624 13.278-4.841 3.551-3.066-5.002 4.348-12.723c-0.708-0.261-1.391-0.568-2.047-0.924l-5.852 11.547-5.809 1.292-0.646-5.486 8.913-9.851c-0.566-0.549-1.092-1.14-1.57-1.769l-10.085 8.068-5.809-0.967 1.613-5.648 12.263-5.002h0.001c-0.312-0.77-0.563-1.569-0.748-2.394l-12.646 3.2-4.518-3.388 3.549-4.035h13.253c0.032-0.624 0.105-1.24 0.209-1.843l-0.068-0.092-13.071-2.905-2.42-4.357 5.325-2.582 11.664 5.611c0.264-0.522 0.555-1.027 0.875-1.514L26.158 34.1l-0.484-5.647h5.809l7.906 9.521c0 0 0.21 0.074 0.498 0.165 0.478-0.383 0.978-0.738 1.5-1.063-0.114-0.391-0.222-0.717-0.222-0.717L34.71 26.354l1.453-5.809 5.325 2.098 4.246 12.578c0.531-0.134 1.073-0.24 1.625-0.317l-1.354-13.067 3.712-4.034 3.712 3.872L52.007 34.94c0.646 0.103 1.274 0.246 1.891 0.426l3.565-12.401 5.486-2.743 1.937 5.971-6.779 10.488 1.776 1.614 8.23-9.682h5.81L73.438 34.1l-10.489 7.261 0.161 1.292c0 0-0.006 0.022-0.016 0.058 0.146 0.264 0.288 0.532 0.423 0.805 1.75-0.791 11.856-5.704 11.856-5.704l5.325 2.582c0 0-1.936 4.68-2.42 4.68-0.426 0-10.897 1.985-13.471 2.474 0.126 0.717 0.203 1.451 0.227 2.198l13.403-0.154 3.712 4.197-4.681 3.387-12.85-3.331c-0.186 0.776-0.428 1.532-0.727 2.256L76.019 60.886zM49.879 38.618c-1.157 0-2.098 0.94-2.098 2.098 0 1.159 0.94 2.099 2.098 2.099s2.098-0.939 2.098-2.099C51.977 39.558 51.036 38.618 49.879 38.618zM56.494 41.361c-1.158 0-2.097 0.94-2.097 2.098 0 1.159 0.938 2.099 2.097 2.099 1.159 0 2.099-0.94 2.099-2.099C58.593 42.301 57.653 41.361 56.494 41.361zM59.399 48.138c-1.158 0-2.097 0.941-2.097 2.098 0 1.158 0.938 2.097 2.097 2.097 1.159 0 2.099-0.938 2.099-2.097C61.498 49.079 60.559 48.138 59.399 48.138zM56.655 54.916c-1.157 0-2.098 0.939-2.098 2.097 0 1.16 0.94 2.097 2.098 2.097 1.159 0 2.099-0.938 2.099-2.097C58.754 55.855 57.814 54.916 56.655 54.916zM49.879 57.98c-1.157 0-2.098 0.941-2.098 2.1 0 1.157 0.94 2.097 2.098 2.097s2.098-0.939 2.098-2.097C51.977 58.922 51.036 57.98 49.879 57.98zM43.263 54.916c-1.159 0-2.097 0.939-2.097 2.097 0 1.16 0.938 2.097 2.097 2.097 1.159 0 2.098-0.937 2.098-2.097C45.361 55.855 44.422 54.916 43.263 54.916zM40.197 48.138c-1.159 0-2.097 0.941-2.097 2.098 0 1.158 0.938 2.097 2.097 2.097 1.159 0 2.098-0.938 2.098-2.097C42.295 49.079 41.356 48.138 40.197 48.138zM42.779 41.361c-1.159 0-2.097 0.94-2.097 2.098 0 1.159 0.938 2.099 2.097 2.099s2.097-0.94 2.097-2.099C44.876 42.301 43.938 41.361 42.779 41.361zM49.717 47.494c-1.516 0-2.742 1.227-2.742 2.743 0 1.515 1.227 2.741 2.742 2.741s2.742-1.227 2.742-2.741C52.459 48.721 51.232 47.494 49.717 47.494z" data-fill-palette-color="accent"></path></g></svg></g></svg></g></svg></g></svg></g><g><path d="M0 123.6c0-68.262 55.338-123.6 123.6-123.6 52.957 0 98.136 33.305 115.733 80.112h-1.47c-17.53-46.032-62.077-78.738-114.263-78.738-67.504 0-122.226 54.722-122.226 122.226 0 67.504 54.722 122.226 122.226 122.226 52.186 0 96.734-32.706 114.263-78.738h1.47c-17.597 46.807-62.775 80.112-115.733 80.112-68.262 0-123.6-55.338-123.6-123.6z" fill="#0080ff" stroke="transparent" data-fill-palette-color="tertiary"></path></g></svg></g><defs></defs></svg><rect width="395.52" height="247.2" fill="none" stroke="none" visibility="hidden"></rect></g></svg></g></svg>